<?xml version="1.0" encoding="UTF-8" standalone="no"?>
<svg
   xmlns:dc="http://purl.org/dc/elements/1.1/"
   xmlns:cc="http://creativecommons.org/ns#"
   xmlns:rdf="http://www.w3.org/1999/02/22-rdf-syntax-ns#"
   xmlns:svg="http://www.w3.org/2000/svg"
   xmlns="http://www.w3.org/2000/svg"
   xmlns:sodipodi="http://sodipodi.sourceforge.net/DTD/sodipodi-0.dtd"
   xmlns:inkscape="http://www.inkscape.org/namespaces/inkscape"
   width="1000mm"
   height="800mm"
   viewBox="0 0 1000 800"
   version="1.1"
   id="svg8"
   inkscape:version="1.0.1 (3bc2e81, 2020-09-07)"
   sodipodi:docname="MAp.svg">
  <defs
     id="defs2" />
  <sodipodi:namedview
     id="base"
     pagecolor="#ffffff"
     bordercolor="#666666"
     borderopacity="1.0"
     inkscape:pageopacity="0.0"
     inkscape:pageshadow="2"
     inkscape:zoom="0.33518307"
     inkscape:cx="2524.5274"
     inkscape:cy="1631.9268"
     inkscape:document-units="mm"
     inkscape:current-layer="layer1"
     inkscape:document-rotation="0"
     showgrid="false"
     inkscape:window-width="1848"
     inkscape:window-height="1016"
     inkscape:window-x="0"
     inkscape:window-y="27"
     inkscape:window-maximized="1" />
  <metadata
     id="metadata5">
    <rdf:RDF>
      <cc:Work
         rdf:about="">
        <dc:format>image/svg+xml</dc:format>
        <dc:type
           rdf:resource="http://purl.org/dc/dcmitype/StillImage" />
        <dc:title></dc:title>
      </cc:Work>
    </rdf:RDF>
  </metadata>
  <g
     inkscape:label="Layer 1"
     inkscape:groupmode="layer"
     id="layer1">
    <ellipse
       style="fill:#80ff80;stroke:#008000;stroke-width:2.64599;stroke-linecap:round;stroke-linejoin:round"
       id="path1082"
       cx="785.43353"
       cy="523.3111"
       rx="106.242"
       ry="97.886467" />
    <ellipse
       style="fill:#00ff00;stroke:#008000;stroke-width:2.64599;stroke-linecap:round;stroke-linejoin:round"
       id="path1077"
       cx="525.4035"
       cy="544.74762"
       rx="133.97054"
       ry="121.47608" />
    <ellipse
       style="fill:#008000;stroke:#008000;stroke-width:2.64599;stroke-linecap:round;stroke-linejoin:round"
       id="path1075"
       cx="270.16208"
       cy="385.70328"
       rx="165.84946"
       ry="166.66132" />
    <text
       xml:space="preserve"
       style="font-size:8.46667px;line-height:1.25;font-family:sans-serif;stroke-width:0.264583"
       x="631.57336"
       y="277.99164"
       id="text859"><tspan
         sodipodi:role="line"
         id="tspan857"
         x="631.57336"
         y="277.99164"
         style="stroke-width:0.264583" /></text>
    <path
       style="fill:none;stroke:#000000;stroke-width:0.264583px;stroke-linecap:butt;stroke-linejoin:miter;stroke-opacity:1"
       d="m 175.21636,193.05459 c 48.71656,-129.072964 162.68703,-50.34228 201.78777,-29.33826 50.66222,27.21458 196.15462,171.4608 239.20932,206.60668 122.78439,100.22983 166.26183,-75.22182 94.01119,-184.15354 -20.66134,-31.15094 28.62117,-56.71767 64.54999,-67.46114 277.11397,-82.86287 268.61347,255.2035 175.64235,410.15533 -18.42842,30.71402 22.72109,77.80589 -11.92057,98.97935 C 824.5236,697.50476 509.16284,687.73388 393.52368,660.46942 336.16053,646.94479 291.43018,616.1569 239.1809,594.37224 205.59383,580.36856 162.18398,602.63092 134.17954,570.25005 36.626807,457.45206 88.839507,274.28354 175.21636,193.05459 Z"
       id="path1025"
       sodipodi:nodetypes="csssssssssc" />
    <rect
       style="fill:#000000;stroke:#000000;stroke-width:2.646;stroke-linecap:round;stroke-linejoin:round"
       id="rect1027"
       width="28.677383"
       height="63.976532"
       x="124.03979"
       y="307.76334" />
    <rect
       style="fill:#000000;stroke:#000000;stroke-width:2.646;stroke-linecap:round;stroke-linejoin:round"
       id="rect1033"
       width="51.019211"
       height="39.875229"
       x="150.75473"
       y="332.10101" />
    <rect
       style="fill:#000000;stroke:#000000;stroke-width:2.646;stroke-linecap:round;stroke-linejoin:round"
       id="rect1035"
       width="31.399689"
       height="70.796799"
       x="200.22787"
       y="301.71716" />
    <text
       xml:space="preserve"
       style="font-size:15.3192px;line-height:1.25;font-family:sans-serif;stroke-width:0.264584"
       x="147.47739"
       y="396.64725"
       id="text1041"><tspan
         sodipodi:role="line"
         id="tspan1039"
         x="147.47739"
         y="396.64725"
         style="stroke-width:0.264584">Capital</tspan></text>
    <path
       style="fill:#00ffff;stroke:#00ffff;stroke-width:0.264584px;stroke-linecap:butt;stroke-linejoin:miter;stroke-opacity:1"
       d="m 176.60003,273.24537 12.81924,22.46592 -12.30273,17.40546 -12.50155,-18.91623 z"
       id="path1043" />
    <rect
       style="fill:#000000;stroke:#000000;stroke-width:2.64599;stroke-linecap:round;stroke-linejoin:round"
       id="rect1047"
       width="13.32148"
       height="32.937775"
       x="449.65662"
       y="488.88007" />
    <rect
       style="fill:#000000;stroke:#000000;stroke-width:2.64599;stroke-linecap:round;stroke-linejoin:round"
       id="rect1049"
       width="18.735748"
       height="53.577305"
       x="461.9155"
       y="467.98126" />
    <rect
       style="fill:#000000;stroke:#000000;stroke-width:2.64599;stroke-linecap:round;stroke-linejoin:round"
       id="rect1051"
       width="16.348295"
       height="32.914989"
       x="481.48639"
       y="488.13068" />
    <path
       style="fill:#00ffff;stroke:#00ffff;stroke-width:0.264582px;stroke-linecap:butt;stroke-linejoin:miter;stroke-opacity:1"
       d="m 470.75075,468.96111 4.40154,7.71378 -4.22421,5.97627 -4.29247,-6.495 z"
       id="path1053" />
    <text
       xml:space="preserve"
       style="font-size:9.525px;line-height:1.25;font-family:sans-serif;stroke-width:0.264583"
       x="448.26346"
       y="532.98975"
       id="text1057"><tspan
         sodipodi:role="line"
         id="tspan1055"
         x="448.26346"
         y="532.98975"
         style="stroke-width:0.264583">The Keep</tspan><tspan
         sodipodi:role="line"
         x="448.26346"
         y="544.896"
         style="stroke-width:0.264583"
         id="tspan1059" /></text>
    <rect
       style="fill:#000000;stroke:#000000;stroke-width:2.64599;stroke-linecap:round;stroke-linejoin:round"
       id="rect1065"
       width="13.190601"
       height="40.064842"
       x="785.9707"
       y="475.43536" />
    <text
       xml:space="preserve"
       style="font-size:9.525px;line-height:1.25;font-family:sans-serif;stroke-width:0.264583"
       x="766.46045"
       y="533.71667"
       id="text1069"><tspan
         sodipodi:role="line"
         id="tspan1067"
         x="766.46045"
         y="533.71667"
         style="stroke-width:0.264583">The Watch</tspan><tspan
         sodipodi:role="line"
         x="766.46045"
         y="545.62292"
         style="stroke-width:0.264583"
         id="tspan1071" /></text>
    <path
       style="fill:#00ffff;stroke:#00ffff;stroke-width:0.264582px;stroke-linecap:butt;stroke-linejoin:miter;stroke-opacity:1"
       d="m 792.30162,475.76668 2.18751,3.83364 -2.09938,2.97013 -2.13329,-3.22793 z"
       id="path1073" />
    <rect
       style="fill:#e5ff80;stroke:#008000;stroke-width:2.64599;stroke-linecap:round;stroke-linejoin:round"
       id="rect1086"
       width="247.55014"
       height="72.84301"
       x="741.00592"
       y="346.00513" />
    <ellipse
       style="fill:#00ffff;stroke:#008000;stroke-width:2.64599;stroke-linecap:round;stroke-linejoin:round"
       id="path1090"
       cx="661.35822"
       cy="286.31802"
       rx="85.87307"
       ry="115.28856" />
    <text
       xml:space="preserve"
       style="font-size:25.3195px;line-height:1.25;font-family:sans-serif;stroke-width:0.264583"
       x="592.13324"
       y="293.92715"
       id="text1096"><tspan
         sodipodi:role="line"
         id="tspan1094"
         x="592.13324"
         y="293.92715"
         style="stroke-width:0.264583">The Sea</tspan><tspan
         sodipodi:role="line"
         x="592.13324"
         y="325.57654"
         style="stroke-width:0.264583"
         id="tspan1098" /></text>
    <rect
       style="fill:#dde9af;stroke:#008000;stroke-width:2.64599;stroke-linecap:round;stroke-linejoin:round"
       id="rect1100"
       width="247.55014"
       height="72.84301"
       x="748.05365"
       y="262.31952" />
    <rect
       style="fill:#aca793;stroke:#008000;stroke-width:2.64599;stroke-linecap:round;stroke-linejoin:round"
       id="rect1102"
       width="247.3856"
       height="42.541164"
       x="740.49866"
       y="206.45078" />
    <rect
       style="fill:#6c6753;stroke:#008000;stroke-width:2.64599;stroke-linecap:round;stroke-linejoin:round"
       id="rect1106"
       width="230.25653"
       height="51.182362"
       x="730.52197"
       y="140.51738" />
    <rect
       style="fill:#8a916f;stroke:#800000;stroke-width:2.64599;stroke-linecap:round;stroke-linejoin:round"
       id="rect1108"
       width="109.08526"
       height="140.20543"
       x="780.02039"
       y="27.648581" />
    <text
       xml:space="preserve"
       style="font-size:17.0928px;line-height:1.25;font-family:sans-serif;fill:#800000;stroke-width:0.264584"
       x="779.72162"
       y="90.702461"
       id="text1112"><tspan
         sodipodi:role="line"
         id="tspan1110"
         x="779.72162"
         y="90.702461"
         style="fill:#800000;stroke-width:0.264584">Magic Tree</tspan><tspan
         sodipodi:role="line"
         x="779.72162"
         y="112.06846"
         style="fill:#800000;stroke-width:0.264584"
         id="tspan1114">Monster King</tspan><tspan
         sodipodi:role="line"
         x="779.72162"
         y="133.43446"
         style="fill:#800000;stroke-width:0.264584"
         id="tspan1116">Lair</tspan></text>
    <rect
       style="fill:#000000;stroke:#000000;stroke-width:2.64599;stroke-linecap:round;stroke-linejoin:round"
       id="rect1118"
       width="45.754963"
       height="28.75514"
       x="306.41031"
       y="330.44727" />
    <text
       xml:space="preserve"
       style="font-size:9.525px;line-height:1.25;font-family:sans-serif;stroke-width:0.264583"
       x="302.9371"
       y="373.80951"
       id="text1122"><tspan
         sodipodi:role="line"
         id="tspan1120"
         x="302.9371"
         y="373.80951"
         style="stroke-width:0.264583">Home town</tspan></text>
    <rect
       style="fill:#000000;stroke:#000000;stroke-width:2.64599;stroke-linecap:round;stroke-linejoin:round"
       id="rect1124"
       width="20.835379"
       height="20.015631"
       x="343.13763"
       y="413.75436" />
    <text
       xml:space="preserve"
       style="font-size:9.525px;line-height:1.25;font-family:sans-serif;stroke-width:0.264583"
       x="331.75473"
       y="447.62491"
       id="text1128"><tspan
         sodipodi:role="line"
         id="tspan1126"
         x="331.75473"
         y="447.62491"
         style="stroke-width:0.264583">Trade Hub</tspan></text>
    <path
       style="fill:#000000;stroke:#000000;stroke-width:2.64599;stroke-linecap:round;stroke-linejoin:round"
       id="path1130"
       d="m 215.55477,390.96439 c 0.002,2.09714 0.33875,4.16925 0.56117,6.25004 0.004,2.10349 0.66271,4.07821 1.17811,6.09118 0.52117,1.98152 1.48407,3.77984 2.32768,5.63285 0.81123,2.05258 2.06687,3.85546 3.21168,5.71989 0.97878,1.80819 2.34114,3.3482 3.57152,4.97907 1.14522,1.7567 2.32338,3.40632 3.80176,4.9031 1.51301,1.5204 3.09385,2.95896 4.81506,4.23947 1.22958,1.03177 2.69065,1.57623 4.17881,2.10193 2.00968,0.51379 3.92831,1.26949 5.9558,1.71881 4.41316,0.85146 8.84213,1.61885 13.25118,2.49124 4.01367,0.95236 8.02549,1.91259 12.09918,2.57397 2.61466,0.32549 5.25332,0.37222 7.88487,0.38195 2.85136,-0.006 5.70264,-0.0338 8.55403,-0.0297 1.95075,0.0127 3.90139,0.0319 5.85214,0.0423 1.56022,0.15827 2.97341,-0.16569 4.4296,-0.67824 1.46663,-0.69122 3.01831,-1.11278 4.55162,-1.62353 1.99242,-0.69046 3.96555,-1.42799 6.0224,-1.90424 1.42036,-0.17867 2.80455,-0.47291 4.19502,-0.80356 1.35459,-0.40135 2.75608,-0.63323 4.11398,-1.0214 1.63131,-0.61547 3.33891,-0.96713 5.0628,-1.19163 1.39896,-0.1493 2.80728,-0.16801 4.21278,-0.17806 0.94154,0.006 1.87883,0.0296 2.81421,-0.0856 0,0 9.26359,-7.15089 9.26359,-7.15089 v 0 c -0.85632,0.43799 -1.7031,0.44558 -2.65602,0.38899 -1.42822,-0.006 -2.85835,-0.0378 -4.28363,0.0778 -1.77019,0.1511 -3.52523,0.45447 -5.22578,0.97941 -1.3025,0.54927 -2.68584,0.60489 -3.98976,1.12839 -1.43685,0.24014 -2.78255,0.8006 -4.25339,0.8428 -2.11281,0.38085 -4.10623,1.0939 -6.13381,1.77867 -1.49881,0.58679 -3.11838,0.75776 -4.49789,1.61271 -1.40885,0.45585 -2.65922,1.20288 -4.19865,0.97877 -1.99612,0.0116 -3.99208,0.0341 -5.9881,0.0542 -2.83819,0.0151 -5.67642,0.008 -8.51464,0.008 -2.60974,-0.006 -5.2253,0.0156 -7.82618,-0.23379 -4.16029,-0.47688 -8.26096,-1.31476 -12.32234,-2.33079 -4.3176,-0.8963 -8.65609,-1.68346 -12.94886,-2.69695 -1.99849,-0.37997 -3.82143,-1.15557 -5.77497,-1.67113 -1.40925,-0.45302 -2.84211,-0.87326 -4.03402,-1.79097 -1.73265,-1.16983 -3.26644,-2.57265 -4.73969,-4.05252 -1.4564,-1.45698 -2.58111,-3.06329 -3.70508,-4.78171 -1.21618,-1.59287 -2.55332,-3.10282 -3.49905,-4.88563 -1.1083,-1.82422 -2.46748,-3.51322 -3.17382,-5.56324 -0.77292,-1.81731 -1.70965,-3.56364 -2.22269,-5.48214 -0.52758,-1.96159 -1.03104,-3.90699 -1.09463,-5.95132 -0.26033,-2.05312 -0.58176,-4.11044 -0.3898,-6.18607 0,0 -10.43619,5.31749 -10.43619,5.31749 z" />
    <path
       style="fill:#000000;stroke:#000000;stroke-width:2.64599;stroke-linecap:round;stroke-linejoin:round"
       id="path1132"
       d="m 341.42457,384.77798 c 1.77946,1.45431 3.22149,3.23247 4.58862,5.06391 1.37274,1.59002 2.80048,3.13659 3.68006,5.06183 0.66421,1.12982 0.95322,2.3504 1.0822,3.63831 0.0896,1.21634 0.072,2.43684 0.0621,3.6554 0,0.78947 -0.003,1.5789 -0.0114,2.36834 0,0 10.42765,-5.30826 10.42765,-5.30826 v 0 c -0.003,-0.78967 0.003,-1.57924 0.007,-2.36889 -0.006,-1.26045 -0.003,-2.52521 -0.13907,-3.77976 -0.20238,-1.39446 -0.55866,-2.73386 -1.31463,-3.94247 -0.98224,-1.96099 -2.41395,-3.58842 -3.8698,-5.21542 -1.40679,-1.85954 -2.88168,-3.66231 -4.5376,-5.30815 0,0 -9.97535,6.13516 -9.97535,6.13516 z" />
    <path
       style="fill:#000000;stroke:#000000;stroke-width:2.64599;stroke-linecap:round;stroke-linejoin:round"
       id="path1134"
       d="m 370.35874,436.2914 c 2.32506,-0.14443 4.6318,0.0124 6.9418,0.25964 2.18622,0.32131 4.38631,0.74104 6.39662,1.6842 1.44306,0.84781 2.97923,1.51339 4.50114,2.20337 1.88466,0.53967 3.52605,1.47635 5.06468,2.66674 1.60303,1.22899 2.99757,2.67364 4.4318,4.08731 1.29217,1.06217 2.20226,2.4081 2.76143,3.97192 0.47879,1.74469 0.86632,3.49401 1.06265,5.29365 0.15248,1.80245 0.17026,3.6131 0.17412,5.42092 -0.014,1.73157 -0.0201,3.46276 0,5.19425 0.037,2.19837 -0.0819,4.4034 0.12631,6.59378 0.40913,2.39467 1.31845,4.65249 2.01607,6.96844 0.63778,2.39165 1.73866,4.59708 2.76209,6.83948 0.89448,1.9386 1.96999,3.74714 3.27613,5.43359 1.02499,1.33064 2.02713,2.67367 3.00617,4.03812 0.97218,1.26789 2.06811,2.50206 3.23117,3.60694 1.51421,1.14868 2.87099,2.49208 4.37909,3.64447 1.43261,1.05963 2.97611,1.9272 4.56949,2.71598 1.27725,0.61457 2.32529,1.5771 3.47011,2.38987 0.19606,0.11023 0.39211,0.22043 0.58817,0.33063 0,0 9.75924,-6.43488 9.75924,-6.43488 v 0 c -0.17058,-0.0687 -0.34118,-0.13732 -0.51176,-0.20598 -1.25786,-0.7443 -2.28722,-1.83092 -3.60217,-2.49611 -1.56631,-0.70112 -3.07202,-1.51069 -4.44992,-2.54037 -1.54181,-1.0305 -2.83472,-2.40924 -4.33525,-3.50393 -0.68567,-0.61285 -1.15935,-1.29354 -1.76271,-1.9786 -0.27911,-0.3169 -0.64005,-0.55666 -0.90969,-0.88165 -0.15118,-0.18224 -0.26154,-0.39478 -0.39232,-0.59216 -1.02704,-1.34255 -2.0124,-2.71598 -3.08666,-4.02217 -1.25619,-1.60973 -2.28886,-3.34309 -3.15894,-5.19219 -1.00727,-2.19043 -2.13244,-4.32178 -2.72635,-6.67366 -0.65987,-2.24891 -1.5246,-4.45233 -1.86195,-6.78148 -0.15322,-2.17025 -0.0266,-4.34711 -0.0531,-6.52135 0.0259,-1.73643 0.0328,-3.47286 0.01,-5.20946 -0.0183,-1.84581 -0.0209,-3.69538 -0.24135,-5.53127 -0.23731,-1.88672 -0.65273,-3.72994 -1.16478,-5.56141 -0.66442,-1.67651 -1.60954,-3.26162 -3.04733,-4.39015 -1.4731,-1.43074 -2.89251,-2.90378 -4.50718,-4.17915 -1.56173,-1.27963 -3.20913,-2.44282 -5.20576,-2.92767 -1.51881,-0.66 -3.01204,-1.38858 -4.48162,-2.14876 -2.0734,-1.10715 -4.38412,-1.5626 -6.67887,-1.99366 -2.2968,-0.25238 -4.58042,-0.51829 -6.8969,-0.44638 0,0 -9.45451,6.86914 -9.45451,6.86914 z" />
    <path
       style="fill:#000000;stroke:#000000;stroke-width:2.64599;stroke-linecap:round;stroke-linejoin:round"
       id="path1136"
       d="m 507.80275,510.62593 c 2.91687,-0.0812 5.83575,-0.0782 8.75355,-0.0675 2.21102,-0.0815 4.37899,0.0748 6.51682,0.64066 4.28003,1.12876 8.3538,2.90613 12.34427,4.79811 3.36957,1.5952 6.70877,3.2684 9.95346,5.10508 2.94691,1.67889 5.95239,3.25081 8.96771,4.80222 3.2847,1.62785 6.61019,3.18185 9.95805,4.67725 3.37902,1.36138 6.78738,2.63572 10.13478,4.07511 3.6531,1.57067 7.31822,3.10737 11.04342,4.49911 2.37617,0.94067 4.86423,1.53529 7.29353,2.31224 2.02766,0.93441 4.13644,1.62976 6.27904,2.24267 2.63818,0.59433 5.1617,1.56659 7.65921,2.58556 1.98395,0.90675 4.10123,1.35644 6.21612,1.81797 3.14523,0.61963 6.24044,1.45865 9.35678,2.20377 4.3021,1.1103 8.68431,1.82211 13.1029,2.24483 3.73605,0.27006 7.48454,0.27027 11.22821,0.30441 2.68544,-0.003 5.37088,0.0257 8.05629,0.0222 2.422,-0.0143 4.84402,-0.0172 7.26602,-0.006 1.86142,0.0238 3.7229,0.0138 5.58443,0.0167 1.99469,0.038 3.98272,0.009 5.96818,-0.19103 2.23456,-0.33991 4.42502,-0.93366 6.52412,-1.76615 5.91053,-2.82598 11.48249,-6.30449 17.13283,-9.60027 1.01727,-1.09739 2.27613,-1.88608 3.43704,-2.81048 1.52863,-1.4495 3.03882,-3.02446 4.1959,-4.79282 1.5373,-2.25505 3.54102,-4.08406 5.33585,-6.11003 1.69389,-1.90613 3.55436,-3.62802 5.67123,-5.05679 1.59714,-1.37848 3.34132,-2.52283 5.09482,-3.67845 1.11591,-0.80426 2.26415,-1.56284 3.43895,-2.2782 0.43744,-0.26638 1.76551,-1.03904 1.32181,-0.78327 -1.03939,0.59918 -25.90462,15.00277 2.75928,-1.60025 -15.87082,9.06915 -9.2906,5.21816 -5.64877,3.56449 1.95548,-0.88794 3.94642,-1.69524 5.931,-2.51497 3.43416,-1.52098 7.11624,-2.20319 10.77907,-2.90269 2.38239,-0.44432 4.79912,-0.65021 7.21784,-0.74806 1.70309,-0.0406 3.40691,-0.0295 5.11037,-0.0421 2.35874,-0.004 4.71734,-0.0212 7.07607,-0.005 1.19089,0.003 2.38173,-0.003 3.57262,0 0,0 9.34336,-6.78815 9.34336,-6.78815 v 0 c -1.19052,0.003 -2.38098,-0.003 -3.5715,0 -2.344,0.013 -4.68779,-0.006 -7.03173,-0.0241 -1.71521,-0.0217 -3.43048,-0.0335 -5.14548,0.0148 -2.49158,0.0706 -4.97523,0.2776 -7.43569,0.69186 -3.73928,0.69567 -7.51377,1.35578 -11.04832,2.81684 -6.94002,2.85146 -13.60056,5.56471 -19.83525,10.05115 20.41855,-11.75692 -1.74628,0.59893 -7.57987,4.7403 -1.77911,1.14842 -3.43246,2.463 -5.11304,3.74938 -1.99419,1.56337 -3.8036,3.30433 -5.46846,5.21719 -1.91686,1.98797 -3.78082,4.01404 -5.37615,6.27777 -1.31302,1.64256 -2.72465,3.24696 -4.41005,4.51784 -1.17115,0.86902 -2.25541,1.83745 -3.43244,2.69525 18.21916,-10.46064 7.04763,-3.91332 2.69285,-1.74212 -1.99803,0.98475 -4.12361,1.44859 -6.26801,2.01221 -1.94677,0.24262 -3.87765,0.31943 -5.84049,0.25837 -1.87703,0.003 -3.75404,-0.007 -5.63099,0.0169 -2.42202,0.0114 -4.84405,0.01 -7.26609,0.004 -2.72027,0.008 -5.44031,0.0564 -8.16065,0.0583 -3.7424,0.0246 -7.48827,0.0276 -11.22583,-0.1902 -4.40573,-0.31822 -8.79485,-0.88932 -13.06493,-2.06 -3.04068,-0.73919 -6.01808,-1.71548 -9.0681,-2.40678 -2.07195,-0.53202 -4.26042,-0.64299 -6.22485,-1.59277 -2.5128,-1.04462 -5.047,-2.09923 -7.70982,-2.69861 -2.10648,-0.63098 -4.2394,-1.18917 -6.18607,-2.24825 -2.44615,-0.86918 -5.04563,-1.22094 -7.47646,-2.15111 -3.71888,-1.35163 -7.38069,-2.83475 -10.99198,-4.45514 -3.3414,-1.47063 -6.72563,-2.79587 -10.15556,-4.04534 -3.31811,-1.49791 -6.5958,-3.08737 -9.87734,-4.65815 -2.99443,-1.54019 -5.98131,-3.0978 -8.89344,-4.79012 -3.28512,-1.89693 -6.77098,-3.44686 -10.2112,-5.03981 -3.96883,-1.88476 -7.97526,-3.74936 -12.1489,-5.13051 -2.21943,-0.76544 -4.44497,-1.04341 -6.79804,-0.85974 -2.85584,0.0103 -5.71291,0.0161 -8.56774,-0.0675 0,0 -9.45454,6.86911 -9.45454,6.86911 z" />
    <path
       style="fill:#000000;stroke:#000000;stroke-width:2.64599;stroke-linecap:round;stroke-linejoin:round"
       id="path1140"
       d="m 809.87767,459.42697 c 0.20068,-2.96061 0.85711,-5.86828 1.46542,-8.76663 0.70826,-3.91541 1.27431,-7.8555 2.28372,-11.70813 1.00426,-4.25352 2.58199,-8.25656 4.50797,-12.16562 1.79488,-3.48742 3.71504,-6.91941 5.9544,-10.14201 2.00715,-2.86279 4.51726,-5.26499 7.15708,-7.53038 0.50059,-0.41984 1.00317,-0.83733 1.50175,-1.25955 1.59166,-1.34803 1.35739,-1.24534 3.05819,-2.40655 0.51075,-0.34872 2.09563,-1.3132 1.55903,-1.00578 -10.38357,5.94809 -10.7043,6.06766 -6.64686,4.02846 3.40804,-1.54665 6.8158,-3.09642 10.25189,-4.58001 4.06879,-1.76978 8.21941,-3.33513 12.31407,-5.04331 3.83466,-1.66613 7.80355,-2.97701 11.67284,-4.55919 5.36575,-2.38665 10.31526,-5.57755 15.37335,-8.54355 1.68129,-0.9859 3.24048,-2.10323 4.75102,-3.3283 2.79535,-2.08767 5.19914,-4.58682 7.19351,-7.43977 3.03067,-4.31554 5.47728,-8.96951 7.76751,-13.70626 2.75717,-6.09124 4.95406,-12.40997 6.24435,-18.97095 1.0156,-6.16294 1.18547,-12.41679 1.28884,-18.64841 0.0582,-4.69614 0.10604,-9.39313 0.0473,-14.08946 0.0992,-4.503 -0.0271,-8.96406 -0.60491,-13.42996 -0.47707,-3.22752 -1.30929,-6.34108 -2.85864,-9.21769 -1.50879,-2.88313 -3.32981,-5.58479 -5.3625,-8.12085 -2.8004,-3.17704 -6.01797,-5.9459 -9.3237,-8.57837 -3.86924,-2.9219 -7.47504,-6.19661 -11.43222,-8.99793 -3.49266,-2.25099 -7.15743,-4.21596 -10.71637,-6.35478 -3.58936,-2.11752 -7.07588,-4.39812 -10.65361,-6.53537 -3.60537,-2.22177 -7.38727,-4.13731 -10.98613,-6.3677 -2.84827,-1.71066 -5.43277,-3.79479 -7.90551,-6.00186 -2.38361,-2.00387 -4.54078,-4.23312 -6.63234,-6.53487 -1.66526,-2.08305 -3.01315,-4.36391 -4.22881,-6.72682 -1.00256,-1.49873 -1.79946,-3.0833 -2.51664,-4.73052 -0.75893,-1.59004 -0.75215,-3.3681 -1.12061,-5.053 -0.41452,-1.47288 -0.54401,-2.9981 -0.62799,-4.51912 -0.0629,-1.42172 -0.037,-2.84505 -0.0591,-4.26756 -0.13113,-1.97405 -0.0372,-3.21063 0.59261,-5.06549 0.66591,-0.83934 0.76004,-1.94795 1.26775,-2.8656 0.24652,-0.44557 0.56775,-0.84592 0.83169,-1.28138 1.16541,-0.81748 1.92921,-2.04149 2.63269,-3.24925 0.79129,-0.86552 1.48161,-1.79745 2.24036,-2.70055 1.28651,-1.32493 2.77569,-2.41752 4.03823,-3.77849 1.3209,-1.20102 2.48898,-2.54069 3.66844,-3.87843 0.95944,-0.93172 2.03084,-1.77249 2.92532,-2.76556 0.47074,-1.10543 1.44531,-1.81601 2.16254,-2.73821 0.92459,-0.73799 1.25968,-1.94662 1.67307,-3.01423 0.007,-0.70154 0.44222,-0.85737 0.80817,-1.30241 0.38915,-0.47328 0.57221,-1.18231 0.86431,-1.71977 0,0 -10.66085,4.79422 -10.66085,4.79422 v 0 c -0.54237,1.0551 -1.34586,1.93937 -1.64524,3.11657 -0.47606,1.01328 -0.95093,1.92902 -1.81072,2.68375 -0.79942,0.84118 -1.43706,1.80569 -2.20906,2.66253 -0.9873,0.88722 -1.90868,1.85168 -2.83345,2.80278 -1.16126,1.3076 -2.37236,2.56892 -3.62466,3.79003 -1.37179,1.29779 -2.91497,2.42359 -4.09289,3.91408 -0.75632,0.92935 -1.557,1.82603 -2.20319,2.83802 -0.8097,1.14422 -1.70908,2.18306 -2.58292,3.27235 -0.80592,1.3929 -1.36424,2.90861 -1.97276,4.39368 -0.48532,1.76821 -0.47468,3.55681 -0.45008,5.38178 -0.0193,1.44442 0.01,2.88886 0.0966,4.33106 0.11486,1.57359 0.28499,3.15116 0.70065,4.6779 0.37753,1.75369 0.47985,3.58634 1.26108,5.23447 0.72237,1.67811 1.53628,3.29133 2.59879,4.78544 1.30614,2.42421 2.80117,4.72728 4.49485,6.90286 2.09984,2.34546 4.26347,4.62298 6.65514,6.6752 2.5522,2.21987 5.21079,4.33017 8.09779,6.10311 3.60873,2.26267 7.48363,4.06165 11.10334,6.31069 3.54089,2.16503 6.96042,4.51669 10.55399,6.59277 3.51438,2.18488 7.27067,3.97797 10.7187,6.28413 4.03386,2.66359 7.64908,5.92135 11.48268,8.85894 3.18733,2.62191 6.26022,5.3988 9.02321,8.47111 1.96591,2.5023 3.74682,5.14366 5.20626,7.97716 1.47244,2.74138 2.23822,5.74207 2.76813,8.79816 0.61031,4.40648 0.7149,8.81957 0.60118,13.26666 -0.0259,4.6695 0.0892,9.33805 0.0705,14.00768 -0.0691,6.15394 -0.19468,12.33829 -1.2831,18.41325 -1.37758,6.4838 -3.53991,12.75231 -6.40778,18.73541 -2.37588,4.74089 -4.95255,9.37784 -8.12514,13.64245 -2.12781,2.70436 -4.55277,5.11913 -7.33187,7.16301 -1.57578,1.17507 -1.30149,1.01428 -2.99995,2.09741 -0.57307,0.36544 -2.32688,1.40499 -1.733,1.07444 15.52337,-8.63999 7.5646,-4.25188 4.06638,-2.51672 -1.31691,0.53057 -2.61194,1.11565 -3.93745,1.62441 -2.57085,0.98682 -5.25819,1.68672 -7.7343,2.91563 -4.09215,1.73715 -8.24637,3.3006 -12.33088,5.05299 -3.4241,1.42298 -6.79508,2.96402 -10.1882,4.45881 -6.833,3.16397 -13.34672,6.97174 -18.91411,12.03402 -2.64771,2.34854 -5.13107,4.85256 -7.09001,7.82304 -2.14548,3.27813 -4.04281,6.71102 -5.75996,10.23247 -1.90203,4.00185 -3.45844,8.1198 -4.52186,12.43015 -0.91733,3.87519 -1.4324,7.82378 -2.22903,11.72366 -0.66191,3.02763 -1.39171,6.05404 -1.68196,9.14575 0,0 10.43353,-5.31614 10.43353,-5.31614 z" />
    <path
       style="fill:#000000;stroke:#000000;stroke-width:2.64599;stroke-linecap:round;stroke-linejoin:round"
       id="path1142"
       d="m 508.4523,473.07656 c 0.75578,-3.90684 2.07052,-7.69028 3.38542,-11.43784 2.11463,-6.04289 4.8495,-11.83335 7.23546,-17.76632 1.18726,-3.25297 2.67705,-6.36574 4.46402,-9.32563 1.84764,-2.47529 4.00479,-4.6963 5.87592,-7.16145 2.28132,-2.81639 5.2092,-5.03727 8.11146,-7.1759 0.57119,-0.39971 1.13951,-0.80349 1.71352,-1.19912 0.6177,-0.42574 1.22545,-0.86712 1.86151,-1.26492 0.68471,-0.42823 2.79619,-1.61761 2.09814,-1.21147 -14.7203,8.56435 -6.29486,3.66572 -2.96278,1.87888 0.64609,-0.35049 1.30128,-0.68474 1.93829,-1.05148 3.8368,-2.209 7.68059,-4.40674 11.48244,-6.67541 0.59439,-0.35467 1.12821,-0.80235 1.70071,-1.19136 1.6645,-1.1311 3.36688,-2.17684 5.11525,-3.1713 3.2671,-2.41226 10.08589,-6.32918 -5.90849,3.20209 -0.37902,0.22588 0.77793,-0.41698 1.17454,-0.61034 1.00713,-0.49101 1.37869,-0.61653 2.42805,-1.03574 3.10663,-1.2379 6.23348,-2.43906 9.26343,-3.85619 6.5994,-3.22956 23.13903,-13.56545 4.7034,-2.55067 -0.47284,0.2825 0.97932,-0.50442 1.4688,-0.75699 0.46212,-0.23847 0.93575,-0.45591 1.386,-0.7161 3.70567,-2.14156 7.38671,-4.32549 11.08006,-6.48822 1.70606,-1.32194 3.28324,-2.80368 4.94988,-4.16763 0.6441,-1.18359 1.98046,-1.52308 2.90499,-2.39935 0.2391,-0.22662 0.4214,-0.50649 0.63211,-0.75973 1.06112,-1.57559 2.75196,-2.49097 4.04099,-3.84331 0.16951,-0.22651 0.32752,-0.46207 0.50853,-0.67953 0.54697,-0.65717 0.48302,-0.38957 0.91053,-1.1262 0.3515,-0.60568 0.49316,-1.00891 1.04611,-1.45634 0,0 -10.78447,4.54583 -10.78447,4.54583 v 0 c -0.72453,1.11607 -1.42981,2.2361 -2.42816,3.14174 -1.40359,1.22497 -2.8408,2.39821 -4.01545,3.85988 -1.2311,1.01481 -2.55391,1.89703 -3.61606,3.10425 -1.5249,1.41523 -3.16455,2.70391 -4.83438,3.94276 2.84517,-1.61549 5.69854,-3.21661 8.53548,-4.84653 0.4563,-0.26215 -0.92514,0.50197 -1.39295,0.74295 -0.4939,0.25443 -1.00754,0.47101 -1.49191,0.74311 -3.76941,2.1173 -7.49543,4.31123 -11.26744,6.4239 -2.2062,1.23568 13.14895,-7.45106 6.55675,-3.81553 -2.93563,1.50617 -6.04959,2.60747 -9.10085,3.85577 -6.22713,2.31164 -11.87296,5.92283 -17.37056,9.63102 -1.71188,1.03354 -3.37748,2.11942 -5.04327,3.22548 -0.56962,0.3782 -2.31177,1.45796 -1.71156,1.13046 1.99038,-1.08606 12.13384,-6.89573 5.89494,-3.39413 -7.52674,4.00913 -15.10424,8.02537 -22.01601,13.03907 -2.90174,2.24483 -5.84602,4.49839 -8.04936,7.47294 -1.9661,2.45756 -4.22799,4.68897 -5.92685,7.34785 -1.68786,2.95746 -2.87669,6.14593 -4.05892,9.33286 -2.32318,5.9426 -4.938,11.76941 -7.1396,17.76137 -1.42743,3.87578 -2.84131,7.75796 -3.89575,11.75528 0,0 10.54809,-5.00276 10.54809,-5.00276 z" />
    <path
       style="fill:#000000;stroke:#000000;stroke-width:2.64599;stroke-linecap:round;stroke-linejoin:round"
       id="path1146"
       d="m 224.24344,173.14439 c 6.00141,-5.77349 11.95677,-11.60118 17.91837,-17.41952 7.71157,-7.5737 14.63906,-15.87756 22.29317,-23.50669 3.44241,-2.85372 6.3677,-6.3163 9.99329,-8.95109 2.89377,-2.10299 21.70141,-12.99116 -10.49775,6.0988 0.19997,-0.0643 1.16634,-0.49835 1.54718,-0.2938 1.13062,0.60727 1.58062,6.26517 1.70408,7.24277 1.10831,9.39784 0.33747,18.80868 -0.84249,28.15105 -0.95745,7.0863 -2.19628,14.13449 -3.03639,21.23646 -0.31853,2.47464 -0.391,4.95926 -0.34753,7.44956 -1.06672,10.80857 11.79693,-0.14818 17.42607,-5.24983 9.85253,-7.69903 19.02336,-16.21124 28.33841,-24.53837 9.94892,-9.06773 19.64153,-18.3959 29.64477,-27.40717 6.0053,-4.94125 11.30289,-10.67997 17.62402,-15.23158 7.39056,-4.37992 -7.07585,4.0249 -10.54404,6.15387 -0.33737,0.20711 0.7411,-0.31696 1.13583,-0.34699 1.68146,-0.12791 2.56702,1.89802 3.30436,2.99575 3.51395,7.17423 4.29826,15.21361 4.98588,23.06103 0.5769,7.6105 0.57923,15.24895 0.47247,22.87576 0.0826,3.66079 -0.41159,7.36326 -0.075,11.01388 1.4524,6.98151 17.43416,-7.77896 22.15372,-11.54302 7.0952,-5.62684 14.13428,-11.32264 21.53946,-16.54017 2.53627,-1.68106 4.91588,-3.58875 7.50705,-5.18845 0.59886,-0.3697 2.44094,-1.40225 1.83388,-1.04622 -12.57948,7.37759 -16.84647,9.13621 -11.3084,6.78204 0.18974,-0.0305 0.40529,-0.19187 0.5692,-0.0916 0.47377,0.28992 0.77896,2.33112 0.82317,2.60577 0.57775,3.58792 0.41675,7.12649 0.26001,10.73961 -0.49747,9.16412 -2.53479,18.15533 -3.9919,27.19979 -1.75324,9.19262 -3.07562,18.28371 -3.61384,27.62884 -0.42907,9.12866 -0.75311,18.2622 -1.05743,27.39581 -0.14063,3.27717 -0.16217,6.55697 -0.1814,9.83652 -0.009,0.29784 -0.11218,1.42723 0.1369,1.73574 5.07351,6.28459 16.7401,-7.45629 21.22527,-12.41069 6.83448,-8.38425 13.44485,-16.94652 20.17498,-25.41369 2.79813,-3.40317 5.80014,-6.64087 8.48889,-10.13451 1.47704,-1.91918 2.74452,-3.65816 4.52993,-5.29671 4.71525,-4.30699 18.0566,-11.3332 -6.39831,2.89267 3.27866,-1.52616 3.13928,-2.04364 3.694,1.61373 1.01542,9.16675 0.0959,18.36362 -1.04518,27.46743 -1.11609,9.84577 -3.59989,19.46168 -5.43684,29.18469 -1.5,7.75112 -1.87963,15.63698 -2.06931,23.50952 -0.0771,6.15281 -0.19463,12.30532 -0.25127,18.45834 -0.0156,4.05313 0.0135,8.10599 -0.0233,12.15901 -0.22823,8.35795 0.97399,3.77137 15.47098,-4.83476 0.53949,-0.32025 0.49631,-1.15562 0.81021,-1.69884 0.49586,-0.85804 1.07617,-1.66444 1.61425,-2.49666 5.13691,-7.88146 10.47007,-15.63103 15.73972,-23.42383 4.29104,-5.82075 8.02357,-12.01073 11.7801,-18.181 2.4316,-4.21209 4.83941,-8.4042 7.53279,-12.45288 0.35073,-0.43358 0.65463,-0.90962 1.05217,-1.30072 0.28958,-0.2849 1.34204,-0.91372 0.99097,-0.70937 -4.50795,2.62374 -8.95985,5.34292 -13.46581,7.97007 -0.037,0.0217 -0.003,-0.16711 0.0148,-0.12766 0.61127,1.4482 0.56296,1.71236 0.94922,3.48117 1.04934,8.41169 1.43129,16.90905 1.85508,25.37479 0.71125,8.81864 1.58863,17.63847 2.8004,26.40452 1.07109,6.57709 1.64751,13.26911 3.22583,19.75223 0.66423,1.65597 1.07188,4.28765 3.02762,5.03092 0.36598,0.13909 0.81852,0.35308 1.16269,0.16645 5.13122,-2.78228 10.0316,-5.97064 15.04741,-8.95599 4.08628,-5.96323 7.93745,-12.08418 11.77467,-18.20947 4.42182,-7.38061 9.04372,-14.63768 13.14971,-22.20196 0.99177,-1.66198 1.79578,-3.59447 3.24837,-4.94249 0.26027,-0.24154 1.18946,-0.77515 0.88281,-0.59616 -14.58235,8.51164 -18.23283,10.31697 -13.2719,7.85214 0.19654,0.21103 0.43625,0.38883 0.58957,0.63307 2.16988,3.4567 3.46353,9.07595 4.44032,12.96789 1.74591,7.17249 2.8402,14.47919 4.4599,21.67819 1.11217,5.00364 2.24769,10.0109 3.71335,14.9248 1.12736,3.32115 2.92062,6.35984 4.13654,9.64165 1.11956,3.13095 2.04666,6.3223 3.29618,9.40634 1.28548,3.55473 2.26452,7.20751 2.85184,10.94121 0.37555,2.99849 1.37404,5.84702 2.06899,8.77125 0.6608,2.1291 2.02025,3.92449 2.85726,5.97958 0.75473,1.762 1.64132,3.43692 2.92828,4.86231 1.69158,1.38152 3.69049,2.26105 5.72661,2.99677 0,0 13.60303,-9.24719 13.60303,-9.24719 v 0 c -1.85241,-0.52615 -3.59897,-1.23586 -5.20256,-2.32219 -1.17377,-1.25558 -1.98789,-2.76831 -2.69774,-4.32681 -0.82402,-1.97959 -2.06211,-3.74976 -2.72585,-5.7898 -0.77975,-2.83474 -1.85483,-5.58755 -2.19842,-8.53215 -0.63505,-3.84609 -1.6609,-7.60719 -2.96193,-11.28186 -1.19041,-3.09909 -2.14868,-6.27576 -3.2466,-9.40795 -1.24719,-3.22746 -3.0562,-6.21043 -4.19886,-9.48671 -1.52214,-4.83442 -2.7397,-9.75879 -3.90831,-14.68898 -1.68985,-7.16965 -2.93482,-14.4367 -4.6236,-21.60778 -1.16652,-5.05431 -2.18575,-10.65215 -4.9943,-15.08416 -7.58555,-7.05213 -16.37982,7.24797 -19.39047,13.23028 -3.87786,7.49546 -8.2665,14.7026 -12.71119,21.87281 -3.99454,6.21895 -7.86318,12.6682 -12.83557,18.15994 4.41452,-2.46007 8.7639,-5.04089 13.24359,-7.38026 0.39243,-0.20492 -0.6394,0.97719 -1.05045,0.81275 -1.22283,-0.48916 -1.45346,-2.64015 -1.99134,-3.55709 -1.71746,-6.33822 -2.47425,-12.90859 -3.54951,-19.37512 -1.22002,-8.70905 -2.05674,-17.47612 -2.83978,-26.23309 -0.4767,-8.6134 -0.74943,-17.24258 -1.44076,-25.8395 -0.0507,-0.29747 -0.97266,-6.31319 -2.07928,-5.83608 -9.50915,4.09967 -12.54575,4.71113 -16.62782,10.66758 -2.60546,4.0208 -4.71064,8.32348 -7.2472,12.38811 -3.67877,6.05523 -7.26723,12.16861 -11.39658,17.93526 -5.28244,7.93038 -10.71639,15.75919 -16.13191,23.59869 -0.61685,0.89577 -1.22465,1.79787 -1.85055,2.68735 -0.38187,0.54268 -1.79102,1.84906 -1.17248,1.6088 15.97621,-6.20618 14.52166,-1.728 14.28774,-9.06992 -0.046,-4.03707 -0.031,-8.07432 -0.0761,-12.11141 -0.091,-6.0801 -0.23251,-12.16139 -0.0698,-18.24196 0.231,-7.77232 0.62489,-15.55369 2.04152,-23.21737 1.80578,-9.69673 4.09072,-19.32161 5.13519,-29.14342 1.15372,-9.35167 2.15509,-18.76279 1.61222,-28.19959 -0.42265,-3.94363 -1.05215,-6.15951 -5.32654,-4.33736 -6.88155,3.9728 -15.46268,7.6866 -21.36426,13.61816 -1.4941,1.68757 -2.72743,3.48769 -4.07511,5.29158 -2.54233,3.40287 -5.34453,6.60091 -7.98711,9.92393 -6.74561,8.62059 -13.48288,17.26013 -20.71066,25.48594 -0.86034,0.86767 -1.68698,1.77015 -2.58106,2.60301 -0.72038,0.67105 -3.15164,2.31657 -2.25759,1.90433 4.45162,-2.05258 8.56383,-4.79136 13.00756,-6.86098 0.26326,-0.12262 0.0228,0.61314 -0.12698,0.86198 -0.244,0.4054 0.12877,-2.43169 -0.11514,-1.41477 -0.0442,-3.20859 -0.0962,-6.41692 -0.18929,-9.62451 -0.14711,-9.00966 -0.10805,-18.02912 0.54184,-27.02143 0.8372,-9.27122 2.2328,-18.45988 3.89827,-27.61845 1.49127,-9.09497 3.35026,-18.16599 3.95253,-27.37419 0.19748,-3.46644 1.13421,-12.65077 -1.41661,-15.52474 -0.32954,-0.37129 -0.85362,-0.50711 -1.28042,-0.76067 -8.56687,2.26953 -17.9093,9.99301 -25.66673,15.33081 -7.35205,5.35377 -14.38545,11.12084 -21.61071,16.64245 -0.4336,0.33449 -4.36857,3.37931 -5.10834,3.91937 -0.49938,0.36457 -2.08206,1.32777 -1.5312,1.04696 4.58325,-2.33638 13.80077,-11.70553 13.96773,-6.56386 0.004,0.13511 -0.0985,-0.25178 -0.14777,-0.37767 -0.38291,-3.53854 0.009,-7.127 -0.24017,-10.67644 -0.16303,-7.61458 -0.32149,-15.23334 -0.86534,-22.83252 -0.80037,-8.10419 -1.61692,-16.39926 -4.91157,-23.93839 -0.71628,-1.25061 -1.46822,-2.85615 -2.60855,-3.83792 -0.54607,-0.47015 -2.2388,-1.32737 -3.06409,-0.90432 -10.77875,5.52535 -11.19013,5.8827 -17.15209,10.01468 -5.91399,4.69403 -11.1266,10.18345 -16.86809,15.0812 -9.78516,8.98989 -19.32773,18.23017 -29.14073,27.18772 -9.65922,8.64308 -19.29585,17.33263 -29.72488,25.05399 -0.5248,0.41639 -2.18013,1.53533 -1.5744,1.24918 4.7352,-2.2369 9.27185,-4.87849 14.00432,-7.12108 0.1442,-0.0683 0.13853,0.57744 0.0132,0.47853 -0.28652,-0.22632 -0.0601,-2.60951 -0.12677,-2.92223 0.0491,-2.40818 0.0718,-4.81853 0.24199,-7.22212 0.52303,-6.96461 1.3811,-13.89612 2.28865,-20.81986 1.14911,-9.53232 2.07153,-19.14451 1.20705,-28.74549 -0.21859,-2.30994 -0.24048,-8.84022 -3.25969,-9.71042 -0.4355,-0.12551 -0.90636,0.012 -1.35953,0.0181 -5.14758,2.91171 -10.33847,5.74822 -15.44279,8.73514 -4.13368,2.41891 -7.54751,7.31056 -11.29287,10.2708 -7.42214,7.70029 -14.298,15.91299 -21.99684,23.34731 -6.26047,6.07356 -12.55785,12.10054 -19.07996,17.89457 0,0 15.31129,-6.31341 15.31129,-6.31341 z" />
    <circle
       id="path1148"
       style="fill:#000000;stroke:#000000;stroke-width:0.264583"
       cx="638.57275"
       cy="439.10843"
       r="1.4754373" />
    <path
       style="fill:#000000;stroke:#000000;stroke-width:2.64599;stroke-linecap:round;stroke-linejoin:round"
       id="path1150"
       d="m 607.58389,420.21265 c 3.98436,-5.47175 8.51141,-10.5079 13.06441,-15.50557 4.89175,-5.34767 9.57715,-10.85794 14.59072,-16.0969 3.91554,-3.92621 7.28083,-8.36507 11.80994,-11.62211 -30.60811,19.30537 -14.66914,6.00334 -10.27216,7.1271 1.66701,0.42606 3.03146,1.9027 4.26212,2.98612 2.66274,2.35558 4.95504,5.12865 7.61167,7.48617 1.23629,1.0971 3.86434,3.01718 5.19001,4.00743 4.3153,3.22466 8.93427,6.06423 13.68851,8.59573 0.55978,0.19392 1.09278,0.49858 1.67931,0.58169 0.60441,0.0856 1.29313,0.20714 1.82938,-0.0845 5.30741,-2.88678 10.56995,-5.89713 15.52456,-9.3546 0.77391,-0.54004 0.96996,-1.6205 1.40393,-2.45851 0.88588,-1.71072 2.5599,-5.46883 3.30753,-7.11695 3.28293,-7.84786 5.63904,-16.03536 7.74002,-24.26547 0.48477,-1.64668 0.86333,-3.5597 1.89561,-5.01136 0.33625,-0.47289 0.85508,-0.78462 1.28262,-1.17695 -4.10501,2.55154 -8.44135,4.7639 -12.31503,7.65461 -0.55214,0.41201 1.38707,-0.11928 2.06679,-0.007 1.01655,0.16798 1.98313,0.56002 2.97468,0.84003 6.25912,2.41252 12.3957,5.11677 18.78666,7.1738 3.40379,0.96398 6.94232,1.43878 10.47737,1.46876 6.75666,-0.54907 8.99178,-4.07371 17.0021,-8.77748 1.06754,-0.62687 1.4369,-2.08764 1.80835,-3.14613 1.45465,-5.24076 -0.0872,-10.54645 -1.52213,-15.61187 -2.05922,-6.55839 -4.27355,-13.07738 -6.20122,-19.67532 -0.0632,-0.29662 -0.76615,-2.5736 -0.29181,-3.20794 0.18611,-0.24887 1.17102,-0.3598 0.91358,-0.18574 -4.12488,2.78911 -8.80007,4.81738 -12.57154,8.0685 -0.69551,0.59955 1.82385,0.23185 2.72219,0.42196 1.12069,0.23714 2.21845,0.57213 3.32766,0.8582 5.21303,1.1707 10.40104,3.46512 15.81894,3.5582 0.8028,0.0138 1.60125,-0.12137 2.40186,-0.18204 7.33038,-2.25076 17.24459,-5.926 20.09452,-13.64943 0.73049,-1.97961 0.79034,-3.09451 1.12159,-5.20507 0.94102,-6.7256 0.33878,-13.42906 -1.06391,-20.03112 -0.24083,-2.24878 -3.28523,-8.45828 -2.53183,-10.46303 0.11311,-0.30099 0.40754,-0.49747 0.6113,-0.74621 5.96966,-2.14384 -1.21751,0.35076 -11.27239,7.06491 -0.59095,0.3946 1.36004,-0.42516 2.05954,-0.55012 2.77678,-0.49597 5.67047,-0.31078 8.47053,-0.25419 9.16869,0.47821 18.8491,-0.0761 24.60855,-9.99723 1.13943,-3.58296 -1.36347,-6.59027 -3.50864,-9.19313 -3.41307,-3.77806 -6.27784,-7.96626 -8.91783,-12.30554 -2.83639,-3.73899 -5.16943,-7.68995 -7.05014,-11.98029 -1.33818,-3.38641 -2.73219,-6.71906 -3.90797,-10.16545 -1.09967,-3.8084 -1.70501,-7.7596 -2.21219,-11.68746 -0.67638,-3.74917 -1.22319,-7.51646 -1.51151,-11.31561 -0.14912,-2.10783 -0.14142,-4.22148 -0.14253,-6.33317 0.3701,-0.73288 1.09575,-1.04059 1.75078,-1.47853 -4.35851,2.58462 -8.73951,5.13173 -13.07555,7.75386 -0.37706,0.22803 0.78501,-0.40314 1.19351,-0.56844 0.45667,-0.18482 0.93186,-0.32018 1.39782,-0.48026 8.91341,-2.68554 14.49969,-6.87769 23.21131,-12.04688 2.45464,-3.04259 1.23849,-6.35603 -0.45453,-9.43132 -3.28343,-5.05518 -6.76711,-9.97674 -10.05353,-15.03221 -3.81593,-6.03819 -7.41487,-12.16396 -10.39294,-18.65859 -2.43665,-4.95327 -4.19886,-10.15437 -5.74045,-15.4404 -0.78277,-2.58056 -1.13927,-5.23817 -1.25045,-7.92284 -0.12131,-2.10461 -0.11239,-4.1623 0.63997,-6.15118 0.56814,-2.09548 1.85468,-3.6246 3.76751,-4.59405 4.7316,-3.11772 11.71752,-7.10301 -11.71397,6.71847 -0.2884,0.17012 0.60735,-0.28314 0.91887,-0.40594 2.01647,-0.7949 0.0699,0.11533 2.1364,-0.90922 2.53593,-1.24639 5.22814,-2.04979 7.96441,-2.70802 0.4037,-0.10981 0.8074,-0.21963 1.2111,-0.32944 0,0 13.02399,-10.02087 13.02399,-10.02087 v 0 c -0.40902,0.11945 -0.81804,0.2389 -1.22706,0.35835 -2.6965,0.82772 -5.52728,1.21881 -8.10422,2.45548 -0.36322,0.1623 -0.74133,0.29466 -1.08966,0.4869 -0.30443,0.16804 -0.53829,0.4592 -0.86066,0.58955 -0.33054,0.13364 -0.74022,0.0144 -1.05357,0.18444 -5.88071,3.1923 -11.32655,5.88908 -16.55167,9.61309 -1.69635,1.5236 -2.77551,3.39935 -3.32163,5.62312 -0.49581,2.19238 -0.53354,4.41985 -0.38053,6.65972 0.21558,2.78079 0.74054,5.51085 1.67066,8.1486 1.75342,5.27227 3.60662,10.49888 6.11973,15.46991 0.85945,1.84054 2.08423,4.52694 3.03872,6.31142 2.29557,4.29169 5.15874,8.25368 7.54856,12.49071 3.2218,5.03062 6.43268,10.07061 9.5672,15.15499 1.36242,2.68643 2.10542,5.299 -0.64873,7.37379 4.27021,-2.4285 8.53141,-4.87292 12.81065,-7.28551 0.48228,-0.27191 -0.9271,0.60921 -1.41912,0.86308 -2.05494,1.06032 -4.33134,1.44673 -6.42798,2.38361 -8.20139,2.64398 -0.59663,-0.92625 -17.73904,9.59644 -0.88974,0.54616 -1.07844,1.8217 -1.17853,2.73292 0.018,2.1403 0.0895,4.28175 0.32242,6.41093 0.4445,3.77257 1.0968,7.51315 1.72765,11.25817 0.51057,4.04803 1.03944,8.13555 2.24388,12.04458 1.19655,3.48542 2.62945,6.8435 4.07294,10.23398 1.93498,4.34838 4.31991,8.35139 7.25416,12.10802 2.67938,4.38915 5.559,8.65629 8.9091,12.56887 1.61722,1.99867 4.10623,4.72088 2.28156,7.30301 -4.62068,3.75263 -1.69743,1.30373 12.28288,-6.66473 0.44612,-0.25426 -0.89998,0.51928 -1.39641,0.65051 -2.37514,0.62783 -4.97885,0.16425 -7.38021,0.19807 -10.38617,-0.38386 -19.50384,-0.79783 -27.17409,9.98857 -0.0904,0.45466 -0.25654,0.90064 -0.27117,1.36398 -0.0329,1.03886 0.40444,2.19266 0.71562,3.14005 0.80484,2.45041 1.72807,4.86418 2.36217,7.36867 1.42928,6.43083 1.87984,12.97358 0.6835,19.49744 -0.54665,2.35799 -1.01452,4.64637 -2.61596,6.56021 -0.42987,0.51374 -2.06505,1.67505 -1.46674,1.37377 3.50448,-1.76488 17.73748,-9.70309 10.25268,-5.78345 -0.75859,0.16441 -1.5027,0.42326 -2.27573,0.49319 -4.89517,0.44291 -11.03458,-2.04576 -15.76237,-3.1682 -1.08127,-0.34036 -2.16093,-0.68591 -3.24382,-1.02106 -0.8863,-0.27432 -1.79702,-1.13845 -2.66372,-0.80735 -5.79551,2.21401 -15.95199,2.94124 -16.21332,9.13974 -0.0439,1.04214 0.53512,2.56466 0.80801,3.46178 2.27611,6.4511 4.3007,12.97398 6.364,19.4963 1.22594,4.84238 2.53693,10.03406 0.50583,14.84874 -0.61585,0.97454 -0.55637,1.08077 -1.44251,1.76247 -0.26107,0.20082 -1.12398,0.68672 -0.83661,0.52578 27.77521,-15.55443 16.66173,-8.13552 11.64722,-6.93219 -3.43345,0.56049 -7.01315,-0.19725 -10.38931,-0.81127 -6.51418,-1.72828 -12.7553,-4.22563 -18.88324,-7.01942 -0.98729,-0.39973 -1.95701,-0.84593 -2.96185,-1.19922 -0.79031,-0.27787 -1.65148,-1.03381 -2.41617,-0.6917 -13.34657,5.97135 -15.63032,5.23478 -18.05004,15.39861 -1.97239,8.15018 -4.2681,16.25013 -7.72758,23.91236 -1.04576,2.10907 -2.40046,5.03666 -3.7389,7.03963 -0.51293,0.76756 -2.59062,2.51423 -1.74051,2.15429 4.35295,-1.84311 8.32376,-4.48294 12.49457,-6.70771 0.4548,-0.2426 -0.8387,0.67029 -1.34609,0.76096 -0.5185,0.0927 -1.04108,-0.16086 -1.56162,-0.24132 -4.84966,-2.25467 -9.44494,-5.07198 -13.779,-8.19854 -1.68809,-1.24857 -3.40381,-2.4511 -4.96356,-3.86424 -2.64271,-2.39427 -4.98485,-5.12149 -7.52803,-7.61775 -8.92921,-8.69791 -9.03271,-3.49369 -22.88063,4.44688 -4.16195,3.52584 -7.52478,7.83913 -11.36063,11.70051 -4.92623,5.27629 -9.64875,10.72732 -14.47956,16.08965 -4.68964,5.24132 -9.38819,10.4973 -13.66475,16.08466 0,0 15.14485,-6.6907 15.14485,-6.6907 z" />
    <path
       style="fill:#000000;stroke:#000000;stroke-width:2.64599;stroke-linecap:round;stroke-linejoin:round"
       id="path1152"
       d="m 469.30444,549.52418 c 0.14214,2.78722 0.0914,5.5808 0.0754,8.37062 -0.0127,2.83885 0.009,5.67764 0.0227,8.51659 0.0233,3.48954 0.0204,6.97916 0.027,10.46875 -0.0349,3.70144 0.0138,7.4028 0.0294,11.10427 -0.10832,3.51276 0.0806,7.04358 0.77176,10.49358 0.95618,2.647 2.15969,5.187 3.101,7.84141 0.91966,3.0984 2.38916,5.84393 4.25323,8.46434 1.21898,2.02562 2.62019,3.94443 3.83505,5.97098 1.39025,2.73947 3.4526,5.02716 5.16599,7.54774 1.84965,3.12473 3.79082,6.20774 5.57387,9.37165 1.74837,2.94375 3.40344,5.92283 4.50903,9.17128 1.01799,1.94466 2.0016,3.86313 2.35781,6.04239 0,0 14.55597,-7.85003 14.55597,-7.85003 v 0 c -0.65579,-2.12582 -1.53839,-4.14964 -2.61906,-6.09724 -1.20565,-3.31047 -2.84779,-6.39834 -4.68799,-9.39943 -1.81343,-3.19569 -3.78923,-6.3051 -5.5834,-9.5109 -1.66692,-2.50986 -3.73173,-4.75583 -5.06245,-7.48995 -1.20089,-2.10016 -2.59729,-4.10258 -3.92761,-6.12124 -1.86854,-2.42515 -3.17534,-5.07122 -4.06702,-8.00585 -0.899,-2.59315 -1.97966,-5.11145 -2.93716,-7.68111 -0.70737,-3.32365 -0.82889,-6.72751 -0.77523,-10.1173 0.0156,-3.71144 0.0642,-7.42275 0.0293,-11.13417 0.007,-3.49877 0.004,-6.99757 0.027,-10.49628 0.0138,-2.84666 0.0353,-5.69318 0.0228,-8.53972 -0.0161,-2.81549 -0.0649,-5.63446 0.0754,-8.44749 0,0 -14.7728,7.52711 -14.7728,7.52711 z" />
    <ellipse
       style="fill:#000000;stroke:#000000;stroke-width:2.64599;stroke-linecap:round;stroke-linejoin:round"
       id="path1156"
       cx="777.27393"
       cy="220.64865"
       rx="18.859352"
       ry="22.010977" />
    <text
       xml:space="preserve"
       style="font-size:9.525px;line-height:1.25;font-family:sans-serif;stroke-width:0.264583"
       x="781.30267"
       y="246.95917"
       id="text1160"><tspan
         sodipodi:role="line"
         id="tspan1158"
         x="781.30267"
         y="246.95917"
         style="stroke-width:0.264583">Cave</tspan></text>
    <rect
       style="fill:#000000;stroke:#000000;stroke-width:2.64599;stroke-linecap:round;stroke-linejoin:round"
       id="rect1162"
       width="29.263756"
       height="26.91749"
       x="572.59143"
       y="454.73886" />
    <rect
       style="fill:#000000;stroke:#000000;stroke-width:2.64599;stroke-linecap:round;stroke-linejoin:round"
       id="rect1164"
       width="37.199066"
       height="27.182182"
       x="510.51929"
       y="579.90204" />
    <rect
       style="fill:#000000;stroke:#000000;stroke-width:2.64599;stroke-linecap:round;stroke-linejoin:round"
       id="rect1166"
       width="30.904274"
       height="24.064066"
       x="755.46448"
       y="557.16034" />
    <rect
       style="fill:#000000;stroke:#000000;stroke-width:2.64599;stroke-linecap:round;stroke-linejoin:round"
       id="rect1168"
       width="19.084013"
       height="6.2656693"
       x="744.71985"
       y="447.7326" />
    <rect
       style="fill:#000000;stroke:#000000;stroke-width:2.64599;stroke-linecap:round;stroke-linejoin:round"
       id="rect1170"
       width="15.611634"
       height="7.3233013"
       x="826.83466"
       y="462.19412" />
    <rect
       style="fill:#000000;stroke:#000000;stroke-width:2.64599;stroke-linecap:round;stroke-linejoin:round"
       id="rect1172"
       width="17.549356"
       height="13.359927"
       x="933.55347"
       y="525.50763" />
  </g>
</svg>
